<svg width="512" height="168" viewBox="0 0 512 168" fill="none" xmlns="http://www.w3.org/2000/svg">
<path d="M496.052 102.672L510.256 112.141C505.646 118.931 494.62 130.581 475.557 130.581C451.885 130.581 434.256 112.266 434.256 88.967C434.256 64.174 452.072 47.354 473.564 47.354C495.18 47.354 505.77 64.547 509.197 73.829L511.066 78.564L455.374 101.613C459.61 109.961 466.214 114.197 475.557 114.197C484.902 114.197 491.38 109.587 496.052 102.672V102.672ZM452.384 87.66L489.574 72.21C487.518 67.04 481.414 63.365 474.124 63.365C464.843 63.365 451.948 71.588 452.384 87.66Z" fill="#FF302F"/>
<path d="M407.407 4.93099H425.347V126.781H407.407V4.92999V4.93099Z" fill="#20B15A"/>
<path d="M379.125 50.593H396.443V124.6C396.443 155.311 378.315 167.957 356.885 167.957C336.702 167.957 324.555 154.377 320.007 143.351L335.892 136.747C338.757 143.537 345.672 151.574 356.885 151.574C370.652 151.574 379.125 143.039 379.125 127.092V121.112H378.502C374.39 126.095 366.541 130.58 356.574 130.58C335.767 130.58 316.704 112.452 316.704 89.092C316.704 65.606 335.767 47.292 356.574 47.292C366.479 47.292 374.39 51.715 378.502 56.574H379.125V50.594V50.593ZM380.37 89.092C380.37 74.39 370.59 63.675 358.131 63.675C345.547 63.675 334.957 74.39 334.957 89.092C334.957 103.606 345.547 114.134 358.131 114.134C370.591 114.197 380.371 103.606 380.371 89.092H380.37Z" fill="#3686F7"/>
<path d="M218.216 88.78C218.216 112.764 199.528 130.393 176.603 130.393C153.679 130.393 134.99 112.702 134.99 88.78C134.99 64.672 153.679 47.105 176.603 47.105C199.528 47.105 218.216 64.672 218.216 88.78ZM200.026 88.78C200.026 73.83 189.186 63.55 176.603 63.55C164.02 63.55 153.18 73.83 153.18 88.78C153.18 103.606 164.02 114.01 176.603 114.01C189.187 114.01 200.026 103.606 200.026 88.78Z" fill="#FF302F"/>
<path d="M309.105 88.967C309.105 112.951 290.416 130.58 267.492 130.58C244.567 130.58 225.879 112.95 225.879 88.967C225.879 64.859 244.567 47.354 267.492 47.354C290.416 47.354 309.105 64.797 309.105 88.967V88.967ZM290.852 88.967C290.852 74.017 280.013 63.737 267.429 63.737C254.846 63.737 244.006 74.017 244.006 88.967C244.006 103.793 254.846 114.197 267.429 114.197C280.075 114.197 290.852 103.731 290.852 88.967Z" fill="#FFBA40"/>
<path d="M66.59 112.328C40.488 112.328 20.056 91.272 20.056 65.17C20.056 39.069 40.488 18.013 66.59 18.013C80.669 18.013 90.947 23.557 98.547 30.659L111.069 18.138C100.479 7.984 86.338 0.257996 66.59 0.257996C30.833 0.258996 0.744019 29.414 0.744019 65.17C0.744019 100.928 30.833 130.082 66.59 130.082C85.902 130.082 100.479 123.728 111.879 111.892C123.59 100.18 127.203 83.734 127.203 70.403C127.203 66.229 126.705 61.931 126.144 58.754H66.59V76.072H109.013C107.767 86.912 104.341 94.325 99.295 99.37C93.19 105.538 83.535 112.328 66.59 112.328V112.328Z" fill="#3686F7"/>
</svg>
