<svg width="328" height="514" viewBox="0 0 328 514" fill="none" xmlns="http://www.w3.org/2000/svg">
<path fill-rule="evenodd" clip-rule="evenodd" d="M10.071 250.752C8.18501 251.713 5.29801 254.183 3.65401 256.24C-0.0919929 260.929 -0.690993 266.625 0.918007 282.23C5.19501 323.696 24.734 362.172 55.152 389.027C78.76 409.869 107.949 423.724 138 428.351L145.5 429.506L145.768 453.753L146.036 478L111.268 478.022C79.586 478.042 76.138 478.208 72.421 479.896C58.99 485.997 58.886 505.409 72.25 511.879C76.612 513.991 77.012 514 164 514C250.988 514 251.388 513.991 255.75 511.879C269.114 505.409 269.01 485.997 255.579 479.896C251.862 478.208 248.414 478.042 216.732 478.022L181.964 478L182.232 453.753L182.5 429.506L190 428.351C262.863 417.132 319.381 356.887 327.082 282.23C328.691 266.625 328.092 260.929 324.346 256.24C316.837 246.841 304.1 246.427 296.284 255.33C292.788 259.312 292.606 260.076 291.014 277.5C288.237 307.891 276.345 334.121 255.765 355.249C223.003 388.882 176.797 401.74 131 389.971C88.908 379.153 53.635 344.719 41.549 302.648C38.58 292.314 37.335 284.935 36.462 272.5C36.114 267.55 35.41 262.118 34.896 260.428C33.788 256.784 28.633 251.55 24.685 250.061C20.472 248.473 13.934 248.782 10.071 250.752Z" fill="#FFC705"/>
<path d="M145.768 453.753L145.5 429.506H182.5L182.232 453.753L181.964 478L216.732 478.022C248.414 478.042 251.862 478.208 255.579 479.896C269.01 485.997 269.114 505.409 255.75 511.879C251.388 513.991 250.988 514 164 514C77.012 514 76.612 513.991 72.25 511.879C58.886 505.409 58.99 485.997 72.421 479.896C76.138 478.208 79.586 478.042 111.268 478.022L146.036 478L145.768 453.753Z" fill="#37C661"/>
<path d="M3.65401 256.24C5.29801 254.183 8.18501 251.713 10.071 250.752C13.934 248.782 20.472 248.473 24.685 250.061C28.633 251.55 33.788 256.784 34.896 260.428C35.41 262.118 36.114 267.55 36.462 272.5C37.335 284.935 38.58 292.314 41.549 302.648C53.635 344.719 88.908 379.153 131 389.971C176.797 401.74 223.003 388.882 255.765 355.249C276.345 334.121 288.237 307.891 291.014 277.5C292.606 260.076 292.788 259.312 296.284 255.33C304.1 246.427 316.837 246.841 324.346 256.24C328.092 260.929 328.691 266.625 327.082 282.23C319.381 356.887 262.863 417.132 190 428.351L182.5 429.506H145.5L138 428.351C107.949 423.724 78.76 409.869 55.152 389.027C24.734 362.172 5.19501 323.696 0.918007 282.23C-0.690993 266.625 -0.0919929 260.929 3.65401 256.24Z" fill="#FF4B3B"/>
<path d="M265 266C265 321.781 219.781 367 164 367C108.219 367 63 321.781 63 266C63 210.219 108.219 165 164 165C219.781 165 265 210.219 265 266Z" fill="#4285F6"/>
<path d="M63 101H265V266H63V101Z" fill="#4285F6"/>
<path d="M265 101C265 156.781 219.781 202 164 202C108.219 202 63 156.781 63 101C63 45.2192 108.219 0 164 0C219.781 0 265 45.2192 265 101Z" fill="#4285F6"/>
</svg>
